<svg xmlns="http://www.w3.org/2000/svg" viewBox="0 0 512 512" fill="none">
  <defs>
    <linearGradient id="rim" x1="91" y1="45" x2="420" y2="467" gradientUnits="userSpaceOnUse">
      <stop stop-color="#DCE9FA"/>
      <stop offset=".28" stop-color="#AFC4E0"/>
      <stop offset=".58" stop-color="#829BBE"/>
      <stop offset="1" stop-color="#D7E5F6"/>
    </linearGradient>
    <radialGradient id="face" cx="0" cy="0" r="1" gradientTransform="matrix(225 260 -260 225 200 153)" gradientUnits="userSpaceOnUse">
      <stop stop-color="#0D3475"/>
      <stop offset=".58" stop-color="#09285F"/>
      <stop offset="1" stop-color="#061D49"/>
    </radialGradient>
    <linearGradient id="symbol" x1="190" y1="125" x2="329" y2="386" gradientUnits="userSpaceOnUse">
      <stop stop-color="#F0F5FD"/>
      <stop offset="1" stop-color="#B8C9E0"/>
    </linearGradient>
  </defs>
  <circle cx="256" cy="256" r="220" fill="url(#rim)"/>
  <circle cx="256" cy="256" r="205" fill="url(#face)" stroke="#DCE9FA" stroke-opacity=".52" stroke-width="1.5"/>
  <path fill="url(#symbol)" fill-rule="evenodd" d="M256 119
    C259 119 260 121 262 125L302 192
    C304 196 305 198 305 202V220H333
    C337 220 339 221 342 223L385 253
    C389 256 389 260 385 263L342 289
    C339 291 337 292 333 292H305V310
    C305 314 304 316 302 320L262 386
    C260 390 256 392 253 386L210 320
    C208 316 207 314 207 310V292H179
    C175 292 173 291 170 289L127 263
    C123 260 123 256 127 253L170 223
    C173 221 175 220 179 220H207V202
    C207 198 208 196 210 192L250 125
    C252 121 253 119 256 119Z
    M256 155
    C252 216 216 252 155 256
    C216 260 252 296 256 357
    C260 296 296 260 357 256
    C296 252 260 216 256 155Z"/>
</svg>
